<svg width="669" height="386" viewBox="0 0 669 386" fill="none" xmlns="http://www.w3.org/2000/svg">
<path d="M577.4 34.5L665.18 383.13H3.18L3 34.5H577.4Z" fill="#08B736"/>
<path d="M577.4 34.5L665.18 383.13H3.18L3 34.5H577.4Z" stroke="black" stroke-width="5" stroke-miterlimit="10"/>
<g clip-path="url(#clip0_65_6367)">
<path d="M60.5 16.04V9.50995H65.8L64.72 4.19995H78.05L79.14 9.49995H83.63V16.03H60.5V16.04ZM61.66 25.76V19.37H83.15V25.76H61.66ZM61.66 35.41V28.95H83.15V35.41H61.66ZM61.72 64.1699V38.81H83.14V64.1699H61.72ZM73.89 45.27H71.31V57.58H73.89V45.27ZM107.89 44.66V64.1699H96.47V44.66H84.37V38.27H96.47V11.34H85.25V4.81995H119.59V11.35H107.89V38.27H120.67V44.66H107.89ZM86.75 35.41L85.11 14.2H93.47L95.1 35.41H86.75ZM117.75 35.41H109.05L110.82 14.2H119.52L117.75 35.41Z" fill="#D93476"/>
<path d="M199.08 46.43V64.11H144.96V46.43H141.63L148.84 36.5H162.44L158.7 41.53H165.7V34.73H142.37V28.54H148.49L146.72 24.8H159.5L161.54 28.54H165.69V23.24H145.57V18.68H142.37V7.33H164.74L163.72 4H178.13L179.01 7.33H201.31V18.68H198.66L197.03 23.24H178.33V28.54H182.27L184.17 24.8H196.68L194.98 28.54H201.24V34.73H178.33V41.53H184.93L181.33 36.5H195.34L202.48 46.43H199.08ZM188.88 13.79H154.95V17.19H185L185.61 15.36H188.87V13.79H188.88ZM165.69 47.52H157.46V49.97H165.69V47.52ZM165.69 55.61H157.46V58.13H165.69V55.61ZM186.57 47.52H178.34V49.97H186.57V47.52ZM186.57 55.61H178.34V58.13H186.57V55.61Z" fill="#D93476"/>
<path d="M240.09 19.77V64.2399H229.07V19.77H223.36V13.24H229.07V4.19995H240.09V13.24H245.12V19.77H240.09ZM227.44 60.43H223.43L224.18 22.76H228.19L227.44 60.43ZM260.21 4.19995V35.54H257.69V32.9599H247.76V35.54H246.13V41.7299H247.76V54.38L244.84 22.76H240.96L242.12 60.43H245.38L243.88 64.2399H254.35L257.68 56.22V47.72L259.58 54.79H264.2L261.55 45.27H257.67V41.7299H260.87L266.24 53.77L256.45 64.2399H265.97L269.3 60.57L270.93 64.2399H282.49L284.94 57.6399H278.96L276.72 52.54L284.54 43.77H275.63L273.73 45.6699L272.03 41.7299H284.13V35.54H281.89L281.21 32.41H272.44L273.05 35.54H270.53V4.19995H260.21ZM254.09 25.2099H256.61V22.15H258.99V30.85H246.41V26.02L250.49 19.15H246.34V13.78L251.58 5.00995H258.99L254.23 13.1H258.99V17.11L254.09 25.2099ZM278.77 25.2099H280.95V22.15H283.33V30.85H271.57V25.68L275.51 19.15H271.43V13.78L276.19 5.00995H283.33L279.05 13.1H283.33V17.11L278.77 25.2099Z" fill="#D93476"/>
<path d="M329.64 28.8899V33.5099H340.52V60.7799H330.93L329.64 57.5199V63.9799H317.4V39.9799H314.75V60.7899H306.25V33.5099H317.4V28.8899H304.69V22.4299H317.4V17.1899H313.32L312.5 20.7899H304L307.26 6.09988H315.83L314.74 10.9299H317.39V4.12988H329.63V10.9299H340.03V17.1799H329.63V22.4199H341.39V28.8799H329.64V28.8899ZM332.29 39.9699H329.64V54.3199H332.29V39.9699ZM342.76 51.7999V9.29988H350.78V51.7999H342.76ZM347.46 63.9699L344.4 57.2399H352.56V4.13988H364.66V63.9699H347.46Z" fill="#D93476"/>
<path d="M60.5 16.04V9.50995H65.8L64.72 4.19995H78.05L79.14 9.49995H83.63V16.03H60.5V16.04ZM61.66 25.76V19.37H83.15V25.76H61.66ZM61.66 35.41V28.95H83.15V35.41H61.66ZM61.72 64.1699V38.81H83.14V64.1699H61.72ZM73.89 45.27H71.31V57.58H73.89V45.27ZM107.89 44.66V64.1699H96.47V44.66H84.37V38.27H96.47V11.34H85.25V4.81995H119.59V11.35H107.89V38.27H120.67V44.66H107.89V44.66ZM86.75 35.41L85.11 14.2H93.47L95.1 35.41H86.75ZM117.75 35.41H109.05L110.82 14.2H119.52L117.75 35.41Z" stroke="black" stroke-width="8" stroke-miterlimit="10"/>
<path d="M199.08 46.43V64.11H144.96V46.43H141.63L148.84 36.5H162.44L158.7 41.53H165.7V34.73H142.37V28.54H148.49L146.72 24.8H159.5L161.54 28.54H165.69V23.24H145.57V18.68H142.37V7.33H164.74L163.72 4H178.13L179.01 7.33H201.31V18.68H198.66L197.03 23.24H178.33V28.54H182.27L184.17 24.8H196.68L194.98 28.54H201.24V34.73H178.33V41.53H184.93L181.33 36.5H195.34L202.48 46.43H199.08V46.43ZM188.88 13.79H154.95V17.19H185L185.61 15.36H188.87V13.79H188.88ZM165.69 47.52H157.46V49.97H165.69V47.52ZM165.69 55.61H157.46V58.13H165.69V55.61ZM186.57 47.52H178.34V49.97H186.57V47.52ZM186.57 55.61H178.34V58.13H186.57V55.61Z" stroke="black" stroke-width="8" stroke-miterlimit="10"/>
<path d="M240.09 19.77V64.2399H229.07V19.77H223.36V13.24H229.07V4.19995H240.09V13.24H245.12V19.77H240.09ZM227.44 60.43H223.43L224.18 22.76H228.19L227.44 60.43ZM260.21 4.19995V35.54H257.69V32.9599H247.76V35.54H246.13V41.7299H247.76V54.38L244.84 22.76H240.96L242.12 60.43H245.38L243.88 64.2399H254.35L257.68 56.22V47.72L259.58 54.79H264.2L261.55 45.27H257.67V41.7299H260.87L266.24 53.77L256.45 64.2399H265.97L269.3 60.57L270.93 64.2399H282.49L284.94 57.6399H278.96L276.72 52.54L284.54 43.77H275.63L273.73 45.6699L272.03 41.7299H284.13V35.54H281.89L281.21 32.41H272.44L273.05 35.54H270.53V4.19995H260.21ZM254.09 25.2099H256.61V22.15H258.99V30.85H246.41V26.02L250.49 19.15H246.34V13.78L251.58 5.00995H258.99L254.23 13.1H258.99V17.11L254.09 25.2099ZM278.77 25.2099H280.95V22.15H283.33V30.85H271.57V25.68L275.51 19.15H271.43V13.78L276.19 5.00995H283.33L279.05 13.1H283.33V17.11L278.77 25.2099Z" stroke="black" stroke-width="8" stroke-miterlimit="10"/>
<path d="M329.64 28.8899V33.5099H340.52V60.7799H330.93L329.64 57.5199V63.9799H317.4V39.9799H314.75V60.7899H306.25V33.5099H317.4V28.8899H304.69V22.4299H317.4V17.1899H313.32L312.5 20.7899H304L307.26 6.09988H315.83L314.74 10.9299H317.39V4.12988H329.63V10.9299H340.03V17.1799H329.63V22.4199H341.39V28.8799H329.64V28.8899ZM332.29 39.9699H329.64V54.3199H332.29V39.9699ZM342.76 51.7999V9.29988H350.78V51.7999H342.76ZM347.46 63.9699L344.4 57.2399H352.56V4.13988H364.66V63.9699H347.46Z" stroke="black" stroke-width="8" stroke-miterlimit="10"/>
<path d="M60.5 16.04V9.50995H65.8L64.72 4.19995H78.05L79.14 9.49995H83.63V16.03H60.5V16.04ZM61.66 25.76V19.37H83.15V25.76H61.66ZM61.66 35.41V28.95H83.15V35.41H61.66ZM61.72 64.1699V38.81H83.14V64.1699H61.72ZM73.89 45.27H71.31V57.58H73.89V45.27ZM107.89 44.66V64.1699H96.47V44.66H84.37V38.27H96.47V11.34H85.25V4.81995H119.59V11.35H107.89V38.27H120.67V44.66H107.89ZM86.75 35.41L85.11 14.2H93.47L95.1 35.41H86.75ZM117.75 35.41H109.05L110.82 14.2H119.52L117.75 35.41Z" fill="white"/>
<path d="M199.08 46.43V64.11H144.96V46.43H141.63L148.84 36.5H162.44L158.7 41.53H165.7V34.73H142.37V28.54H148.49L146.72 24.8H159.5L161.54 28.54H165.69V23.24H145.57V18.68H142.37V7.33H164.74L163.72 4H178.13L179.01 7.33H201.31V18.68H198.66L197.03 23.24H178.33V28.54H182.27L184.17 24.8H196.68L194.98 28.54H201.24V34.73H178.33V41.53H184.93L181.33 36.5H195.34L202.48 46.43H199.08ZM188.88 13.79H154.95V17.19H185L185.61 15.36H188.87V13.79H188.88ZM165.69 47.52H157.46V49.97H165.69V47.52ZM165.69 55.61H157.46V58.13H165.69V55.61ZM186.57 47.52H178.34V49.97H186.57V47.52ZM186.57 55.61H178.34V58.13H186.57V55.61Z" fill="white"/>
<path d="M240.09 19.77V64.2399H229.07V19.77H223.36V13.24H229.07V4.19995H240.09V13.24H245.12V19.77H240.09ZM227.44 60.43H223.43L224.18 22.76H228.19L227.44 60.43ZM260.21 4.19995V35.54H257.69V32.9599H247.76V35.54H246.13V41.7299H247.76V54.38L244.84 22.76H240.96L242.12 60.43H245.38L243.88 64.2399H254.35L257.68 56.22V47.72L259.58 54.79H264.2L261.55 45.27H257.67V41.7299H260.87L266.24 53.77L256.45 64.2399H265.97L269.3 60.57L270.93 64.2399H282.49L284.94 57.6399H278.96L276.72 52.54L284.54 43.77H275.63L273.73 45.6699L272.03 41.7299H284.13V35.54H281.89L281.21 32.41H272.44L273.05 35.54H270.53V4.19995H260.21ZM254.09 25.2099H256.61V22.15H258.99V30.85H246.41V26.02L250.49 19.15H246.34V13.78L251.58 5.00995H258.99L254.23 13.1H258.99V17.11L254.09 25.2099ZM278.77 25.2099H280.95V22.15H283.33V30.85H271.57V25.68L275.51 19.15H271.43V13.78L276.19 5.00995H283.33L279.05 13.1H283.33V17.11L278.77 25.2099Z" fill="white"/>
<path d="M329.64 28.8899V33.5099H340.52V60.7799H330.93L329.64 57.5199V63.9799H317.4V39.9799H314.75V60.7899H306.25V33.5099H317.4V28.8899H304.69V22.4299H317.4V17.1899H313.32L312.5 20.7899H304L307.26 6.09988H315.83L314.74 10.9299H317.39V4.12988H329.63V10.9299H340.03V17.1799H329.63V22.4199H341.39V28.8799H329.64V28.8899ZM332.29 39.9699H329.64V54.3199H332.29V39.9699ZM342.76 51.7999V9.29988H350.78V51.7999H342.76ZM347.46 63.9699L344.4 57.2399H352.56V4.13988H364.66V63.9699H347.46Z" fill="white"/>
</g>
<defs>
<clipPath id="clip0_65_6367">
<rect width="312.16" height="68.24" fill="white" transform="translate(56.5)"/>
</clipPath>
</defs>
</svg>
