<svg width="305" height="61" viewBox="0 0 305 61" fill="none" xmlns="http://www.w3.org/2000/svg">
<path d="M0.5 12.04V5.50995H5.8L4.72 0.199951H18.05L19.14 5.49995H23.63V12.03H0.5V12.04ZM1.66 21.76V15.37H23.15V21.76H1.66ZM1.66 31.41V24.95H23.15V31.41H1.66ZM1.72 60.1699V34.81H23.14V60.1699H1.72ZM13.89 41.27H11.31V53.58H13.89V41.27ZM47.89 40.66V60.1699H36.47V40.66H24.37V34.27H36.47V7.33995H25.25V0.819952H59.59V7.34995H47.89V34.27H60.67V40.66H47.89ZM26.75 31.41L25.11 10.2H33.47L35.1 31.41H26.75ZM57.75 31.41H49.05L50.82 10.2H59.52L57.75 31.41Z" fill="white"/>
<path d="M139.08 42.43V60.11H84.9599V42.43H81.6299L88.8399 32.5H102.44L98.6999 37.53H105.7V30.73H82.3699V24.54H88.4899L86.7199 20.8H99.4999L101.54 24.54H105.69V19.24H85.5699V14.68H82.3699V3.33H104.74L103.72 0H118.13L119.01 3.33H141.31V14.68H138.66L137.03 19.24H118.33V24.54H122.27L124.17 20.8H136.68L134.98 24.54H141.24V30.73H118.33V37.53H124.93L121.33 32.5H135.34L142.48 42.43H139.08ZM128.88 9.79H94.9499V13.19H125L125.61 11.36H128.87V9.79H128.88ZM105.69 43.52H97.4599V45.97H105.69V43.52ZM105.69 51.61H97.4599V54.13H105.69V51.61ZM126.57 43.52H118.34V45.97H126.57V43.52ZM126.57 51.61H118.34V54.13H126.57V51.61Z" fill="white"/>
<path d="M180.09 15.77V60.2399H169.07V15.77H163.36V9.23995H169.07V0.199951H180.09V9.23995H185.12V15.77H180.09ZM167.44 56.43H163.43L164.18 18.76H168.19L167.44 56.43ZM200.21 0.199951V31.54H197.69V28.9599H187.76V31.54H186.13V37.7299H187.76V50.38L184.84 18.76H180.96L182.12 56.43H185.38L183.88 60.2399H194.35L197.68 52.22V43.72L199.58 50.79H204.2L201.55 41.27H197.67V37.7299H200.87L206.24 49.77L196.45 60.2399H205.97L209.3 56.57L210.93 60.2399H222.49L224.94 53.6399H218.96L216.72 48.54L224.54 39.77H215.63L213.73 41.6699L212.03 37.7299H224.13V31.54H221.89L221.21 28.41H212.44L213.05 31.54H210.53V0.199951H200.21ZM194.09 21.2099H196.61V18.15H198.99V26.85H186.41V22.02L190.49 15.15H186.34V9.77995L191.58 1.00995H198.99L194.23 9.09995H198.99V13.11L194.09 21.2099ZM218.77 21.2099H220.95V18.15H223.33V26.85H211.57V21.68L215.51 15.15H211.43V9.77995L216.19 1.00995H223.33L219.05 9.09995H223.33V13.11L218.77 21.2099Z" fill="white"/>
<path d="M269.64 24.8899V29.5099H280.52V56.7799H270.93L269.64 53.5199V59.9799H257.4V35.9799H254.75V56.7899H246.25V29.5099H257.4V24.8899H244.69V18.4299H257.4V13.1899H253.32L252.5 16.7899H244L247.26 2.09988H255.83L254.74 6.92988H257.39V0.129883H269.63V6.92988H280.03V13.1799H269.63V18.4199H281.39V24.8799H269.64V24.8899ZM272.29 35.9699H269.64V50.3199H272.29V35.9699ZM282.76 47.7999V5.29988H290.78V47.7999H282.76ZM287.46 59.9699L284.4 53.2399H292.56V0.139883H304.66V59.9699H287.46Z" fill="white"/>
</svg>
